<svg width="26" height="26" viewBox="0 0 26 26" fill="none" xmlns="http://www.w3.org/2000/svg">
<g id="assignment">
<mask id="mask0_2500_28968" style="mask-type:alpha" maskUnits="userSpaceOnUse" x="0" y="0" width="26" height="26">
<rect id="Bounding box" width="26" height="26" fill="#D9D9D9"/>
</mask>
<g mask="url(#mask0_2500_28968)">
<path id="assignment_2" d="M3.79199 22.2083V3.79167H10.5712C10.6393 3.19024 10.9018 2.67881 11.3588 2.2574C11.8156 1.8358 12.3645 1.625 13.0055 1.625C13.6464 1.625 14.1954 1.8358 14.6524 2.2574C15.1094 2.67881 15.3684 3.19024 15.4294 3.79167H22.2087V22.2083H3.79199ZM7.85449 18.0207H14.8962V16.396H7.85449V18.0207ZM7.85449 13.8125H18.1462V12.1875H7.85449V13.8125ZM7.85449 9.60402H18.1462V7.97929H7.85449V9.60402ZM13.0003 4.70844C13.235 4.70844 13.4291 4.6317 13.5826 4.47823C13.7361 4.32476 13.8128 4.13066 13.8128 3.89594C13.8128 3.66121 13.7361 3.46712 13.5826 3.31365C13.4291 3.16017 13.235 3.08344 13.0003 3.08344C12.7656 3.08344 12.5715 3.16017 12.418 3.31365C12.2646 3.46712 12.1878 3.66121 12.1878 3.89594C12.1878 4.13066 12.2646 4.32476 12.418 4.47823C12.5715 4.6317 12.7656 4.70844 13.0003 4.70844Z" fill="white"/>
</g>
</g>
</svg>
