<svg width="14" height="14" viewBox="0 0 14 14" fill="none" xmlns="http://www.w3.org/2000/svg">
<g id="Eye">
<path id="Vector" d="M13.7215 6.59782C12.2402 3.47751 10.0012 1.9072 6.9996 1.9072C3.99648 1.9072 1.75898 3.47751 0.277727 6.59938C0.218314 6.72519 0.1875 6.8626 0.1875 7.00173C0.1875 7.14086 0.218314 7.27826 0.277727 7.40407C1.75898 10.5244 3.99804 12.0947 6.9996 12.0947C10.0027 12.0947 12.2402 10.5244 13.7215 7.40251C13.8418 7.14938 13.8418 6.85563 13.7215 6.59782ZM6.9996 10.9697C4.47929 10.9697 2.63398 9.69157 1.33241 7.00095C2.63398 4.31032 4.47929 3.0322 6.9996 3.0322C9.51992 3.0322 11.3652 4.31032 12.6668 7.00095C11.3668 9.69157 9.52148 10.9697 6.9996 10.9697ZM6.9371 4.25095C5.41835 4.25095 4.1871 5.4822 4.1871 7.00095C4.1871 8.5197 5.41835 9.75095 6.9371 9.75095C8.45585 9.75095 9.6871 8.5197 9.6871 7.00095C9.6871 5.4822 8.45585 4.25095 6.9371 4.25095ZM6.9371 8.75095C5.96991 8.75095 5.1871 7.96813 5.1871 7.00095C5.1871 6.03376 5.96991 5.25095 6.9371 5.25095C7.90429 5.25095 8.6871 6.03376 8.6871 7.00095C8.6871 7.96813 7.90429 8.75095 6.9371 8.75095Z" fill="#BFBFBF"/>
</g>
</svg>
