<svg width="14" height="14" viewBox="0 0 14 14" fill="none" xmlns="http://www.w3.org/2000/svg">
<g id="save">
<path id="Vector" d="M12.2131 4.00996L9.99004 1.78691C9.82598 1.62285 9.60313 1.53125 9.3707 1.53125H1.96875C1.72676 1.53125 1.53125 1.72676 1.53125 1.96875V12.0312C1.53125 12.2732 1.72676 12.4688 1.96875 12.4688H12.0312C12.2732 12.4688 12.4688 12.2732 12.4688 12.0312V4.62793C12.4688 4.39551 12.3771 4.17402 12.2131 4.00996ZM5.25 2.40625H8.75V3.9375H5.25V2.40625ZM7 9.98047C5.91309 9.98047 5.03125 9.09863 5.03125 8.01172C5.03125 6.9248 5.91309 6.04297 7 6.04297C8.08691 6.04297 8.96875 6.9248 8.96875 8.01172C8.96875 9.09863 8.08691 9.98047 7 9.98047ZM7 6.91797C6.3957 6.91797 5.90625 7.40742 5.90625 8.01172C5.90625 8.61602 6.3957 9.10547 7 9.10547C7.6043 9.10547 8.09375 8.61602 8.09375 8.01172C8.09375 7.40742 7.6043 6.91797 7 6.91797Z" fill="white"/>
</g>
</svg>
